<svg width="891" height="462" xmlns="http://www.w3.org/2000/svg" xmlns:xlink="http://www.w3.org/1999/xlink" xml:space="preserve" overflow="hidden"><defs><clipPath id="clip0"><rect x="646" y="421" width="891" height="462"/></clipPath></defs><g clip-path="url(#clip0)" transform="translate(-646 -421)"><path d="M1145 713.854 1486.14 713.854 1486.14 716.146 1145 716.146ZM1481.56 701.25 1509.06 715 1481.56 728.75Z"/><path d="M1.14583-1.56637e-06 1.14616 241.083-1.1455 241.083-1.14583 1.56637e-06ZM13.7503 236.5 0.000360892 264-13.7497 236.5Z" transform="matrix(1 0 0 -1 1331 714)"/><path d="M1278 550 1278 715" stroke="#548235" stroke-width="5.72917" stroke-miterlimit="8" fill="none" fill-rule="evenodd"/><path d="M1385 550 1385 715" stroke="#548235" stroke-width="5.72917" stroke-miterlimit="8" fill="none" fill-rule="evenodd"/><path d="M1278 551 1383.9 551" stroke="#548235" stroke-width="5.72917" stroke-miterlimit="8" fill="none" fill-rule="evenodd"/><path d="M1384 551 1489.9 551" stroke="#548235" stroke-width="5.72917" stroke-miterlimit="8" fill="none" fill-rule="evenodd"/><path d="M1278 715 1383.9 715" stroke="#548235" stroke-width="5.72917" stroke-miterlimit="8" fill="none" fill-rule="evenodd"/><path d="M1173 715 1278.9 715" stroke="#548235" stroke-width="5.72917" stroke-miterlimit="8" fill="none" fill-rule="evenodd"/><path d="M0.0115983-1.71871 33.6231-1.49189 33.5999 1.94553-0.0115983 1.71871ZM29.1211-13.5538 56.5277 0.381463 28.9355 13.9456Z" fill="#C9C9C9" transform="matrix(-1 0 0 1 1361.03 550.5)"/><path d="M1.71853-0.0275574 2.19017 29.3849-1.24689 29.44-1.71853 0.0275574ZM14.1464 24.6092 0.839075 52.3261-13.3501 25.0501Z" fill="#C9C9C9" transform="matrix(-1 0 0 1 1279.34 603.5)"/><path d="M1.09731e-05-1.71875 33.611-1.71854 33.611 1.71896-1.09731e-05 1.71875ZM29.0277-13.7498 56.5277 0.000360892 29.0276 13.7502Z" fill="#C9C9C9" transform="matrix(-1 0 0 1 1247.03 712.5)"/><path d="M22.9167-1.7186 56.5277-1.71839 56.5276 1.71911 22.9167 1.7189ZM27.4999 13.7502 0 0 27.5001-13.7498Z" fill="#FFD966" transform="matrix(-1 0 0 1 1279.03 719.5)"/><path d="M0.0115983-1.71871 33.6231-1.49189 33.5999 1.94553-0.0115983 1.71871ZM29.1211-13.5538 56.5277 0.381463 28.9355 13.9456Z" fill="#C9C9C9" transform="matrix(-1 0 0 1 1446.03 549.5)"/><path d="M22.9167-1.7186 56.5277-1.71839 56.5276 1.71911 22.9167 1.7189ZM27.4999 13.7502 0 0 27.5001-13.7498Z" fill="#FFD966" transform="matrix(-1 0 0 1 1366.03 719.5)"/><path d="M2.08596 22.8862 2.5576 52.2986-0.879454 52.3537-1.3511 22.9413ZM-13.3073 27.7169 0 0 14.1892 27.276Z" fill="#FFD966" transform="matrix(-1 0 0 1 1385.34 603.5)"/><path d="M22.9167-1.7186 56.5277-1.71839 56.5276 1.71911 22.9167 1.7189ZM27.4999 13.7502 0 0 27.5001-13.7498Z" fill="#FFD966" transform="matrix(-1 0 0 1 1474.03 556.5)"/><path d="M681 712.854 1022.14 712.854 1022.14 715.146 681 715.146ZM1017.56 700.25 1045.06 714 1017.56 727.75Z"/><path d="M1.14583-1.56637e-06 1.14616 241.083-1.1455 241.083-1.14583 1.56637e-06ZM13.7503 236.5 0.000360892 264-13.7497 236.5Z" transform="matrix(1 0 0 -1 867 713)"/><path d="M867 549 867 714" stroke="#548235" stroke-width="5.72917" stroke-miterlimit="8" fill="none" fill-rule="evenodd"/><path d="M867 550 1026.48 550" stroke="#548235" stroke-width="5.72917" stroke-miterlimit="8" fill="none" fill-rule="evenodd"/><path d="M708 714 866.227 714" stroke="#548235" stroke-width="5.72917" stroke-miterlimit="8" fill="none" fill-rule="evenodd"/><text font-family="Times New Roman,Times New Roman_MSFontService,sans-serif" font-weight="400" font-size="48" transform="matrix(1 0 0 1 692.863 784)">(a) Original gated </text><text font-family="Times New Roman,Times New Roman_MSFontService,sans-serif" font-weight="400" font-size="48" transform="matrix(1 0 0 1 787.096 842)">forward</text><text font-family="Times New Roman,Times New Roman_MSFontService,sans-serif" font-weight="400" font-size="48" transform="matrix(1 0 0 1 1141.06 785)">(a) Forward with </text><text font-family="Times New Roman,Times New Roman_MSFontService,sans-serif" font-weight="400" font-size="48" transform="matrix(1 0 0 1 1160.54 843)">hysteresis loop</text></g></svg>